<svg width="279" height="138" viewBox="0 0 279 138" fill="none" xmlns="http://www.w3.org/2000/svg">
<path fill-rule="evenodd" clip-rule="evenodd" d="M0.553696 7.44215C0.553696 3.32967 3.88752 -0.00415039 8 -0.00415039H216C220.112 -0.00415039 223.446 3.32967 223.446 7.44215V49.6379C223.446 52.0357 222.292 54.2867 220.344 55.6856L194.576 74.1954L219.655 88.3245C221.997 89.6441 223.446 92.1237 223.446 94.8121V130.058C223.446 134.17 220.112 137.504 216 137.504H125.155C121.043 137.504 117.709 134.17 117.709 130.058V14.8885H15.4463V122.612H92.8878V82.4016H54.1671C50.0546 82.4016 46.7208 79.0678 46.7208 74.9553C46.7208 70.8428 50.0546 67.509 54.1671 67.509H100.334C104.447 67.509 107.78 70.8428 107.78 74.9553V130.058C107.78 134.17 104.447 137.504 100.334 137.504H8C3.88752 137.504 0.553696 134.17 0.553696 130.058V7.44215ZM132.601 14.8885V67.509H178.357L208.554 45.8184V14.8885H132.601ZM178.801 82.4016H132.601V122.612H208.554V99.1637L178.801 82.4016Z" fill="white"/>
<path d="M269.121 125C269.026 125 268.967 124.941 268.943 124.822L264.034 100.386C264.011 100.291 264.058 100.243 264.177 100.243H268.196C268.291 100.243 268.35 100.291 268.374 100.386L271.291 116.677L274.136 100.386C274.16 100.291 274.219 100.243 274.314 100.243H278.298C278.416 100.243 278.464 100.291 278.44 100.386L273.603 124.822C273.579 124.941 273.52 125 273.425 125H269.121Z" fill="white"/>
<path d="M250.343 125C250.248 125 250.2 124.941 250.2 124.822L250.236 100.386C250.236 100.291 250.283 100.243 250.378 100.243H261.796C261.891 100.243 261.939 100.303 261.939 100.421V104.405C261.939 104.5 261.891 104.547 261.796 104.547H254.504V110.096H261.796C261.891 110.096 261.939 110.144 261.939 110.238L261.974 114.258C261.974 114.353 261.927 114.4 261.832 114.4H254.504V120.625H261.832C261.927 120.625 261.974 120.684 261.974 120.803V124.858C261.974 124.953 261.927 125 261.832 125H250.343Z" fill="white"/>
<path d="M233.601 125C233.482 125 233.423 124.941 233.423 124.822L233.494 100.386C233.494 100.291 233.541 100.243 233.636 100.243L240.288 100.208C241.592 100.184 242.778 100.492 243.845 101.133C244.936 101.773 245.801 102.638 246.441 103.729C247.082 104.796 247.402 105.982 247.402 107.286V117.495C247.402 118.87 247.07 120.127 246.406 121.265C245.742 122.38 244.853 123.269 243.738 123.933C242.624 124.597 241.367 124.941 239.968 124.964L233.601 125ZM237.762 120.625H239.968C240.845 120.625 241.58 120.317 242.173 119.7C242.79 119.084 243.098 118.348 243.098 117.495V107.251C243.098 106.492 242.813 105.84 242.244 105.294C241.699 104.725 241.047 104.452 240.288 104.476L237.798 104.512L237.762 120.625Z" fill="white"/>
</svg>
